<svg xmlns="http://www.w3.org/2000/svg" width="42.483" height="26.171" viewBox="0 0 48.59 29.94" shape-rendering="geometricPrecision" text-rendering="geometricPrecision" image-rendering="optimizeQuality" fill-rule="evenodd" clip-rule="evenodd"><path d="M44.15 20l-.03-4.65 4.47-2.5L24.23 0 0 13.11l9.71 5.58.02 3.31v.26l.09-.04c-.1.14-.17.28-.17.42.01 1.63 6.59 2.92 14.71 2.88 8.12-.04 14.69-1.41 14.68-3.03 0-.14-.08-.28-.18-.42l.09.04v-.27l-.02-3.33 4.21-2.62.02 4.12c-.46.2-.79.65-.78 1.19 0 .7.57 1.26 1.28 1.26.71 0 1.27-.58 1.27-1.27 0-.53-.33-.98-.79-1.18zm-19.79 4.4c-7.21.04-13.05-.75-13.06-1.76-.01-1.01 5.83-1.86 13.04-1.89 7.21-.04 13.05.75 13.05 1.76.01 1.01-5.83 1.86-13.03 1.9zm14.25-8.59c-.98-1.03-4.47-3.73-14.32-3.68-9.86.05-13.31 2.79-14.27 3.83l-.01-.98s2.8-4.25 14.27-4.32c11.47-.06 14.32 4.16 14.32 4.16l.01.98zm4.04 6.92l-.5 7.2c1.54-2.41 2.82-1.51 2.82-1.51l-.03-5.7c-1.65.65-2.29.01-2.29.01z" fill="#010002" fill-rule="nonzero"/></svg>