<svg xmlns="http://www.w3.org/2000/svg" width="75.724" height="67.211" viewBox="0 0 554.15 491.85" shape-rendering="geometricPrecision" text-rendering="geometricPrecision" image-rendering="optimizeQuality" fill-rule="evenodd" clip-rule="evenodd"><path d="M252.27 15.13c-12.68 8.42-74.64 49.55-137.68 91.39C51.55 148.36 0 182.97 0 183.42c0 .45 3.16 2.54 7.06 4.63 3.89 2.26 66.03 36.68 138.31 76.71l131.16 72.92 3.36-1.72c1.9-.9 50.28-28.54 107.61-61.23l104.17-59.6.63 184.32h61.86V183.79l-80.26-53.8C365.75 57.52 279.33.46 277.26.01c-1.1-.17-12.23 6.61-25.01 15.13h.02zM123.02 353.35l.28 46.47 153.53 92.03L431.45 399v-45.93c0-25.35-.28-46.02-.54-46.02-.37 0-30.61 18.12-67.3 40.4l-76.62 46.28-10.05 5.9-30.52-18.3c-25.46-15.22-50.9-30.52-76.26-45.93l-46.47-28.09c-.54-.17-.73 20.47-.63 46.02l-.04.02z" fill="#33302b" fill-rule="nonzero"/></svg>