<?xml version="1.0" encoding="UTF-8"?>
<!DOCTYPE svg PUBLIC "-//W3C//DTD SVG 1.1//EN" "http://www.w3.org/Graphics/SVG/1.1/DTD/svg11.dtd">
<!-- Creator: CorelDRAW 2023 (Not for commercial use) -->
<svg xmlns="http://www.w3.org/2000/svg" xml:space="preserve" width="0.543201in" height="0.54324in" version="1.1" style="shape-rendering:geometricPrecision; text-rendering:geometricPrecision; image-rendering:optimizeQuality; fill-rule:evenodd; clip-rule:evenodd"
viewBox="0 0 97.68 97.68"
 xmlns:xlink="http://www.w3.org/1999/xlink"
 xmlns:xodm="http://www.corel.com/coreldraw/odm/2003">
 <defs>
  <style type="text/css">
   <![CDATA[
    .fil0 {fill:#33302B;fill-rule:nonzero}
   ]]>
  </style>
 </defs>
 <g id="Layer_x0020_1">
  <metadata id="CorelCorpID_0Corel-Layer"/>
  <path id="icono_linkedin.svg" class="fil0" d="M89.86 0.01l-81.5 0c-1.05,-0.05 -2.1,0.11 -3.09,0.47 -0.99,0.36 -1.9,0.91 -2.67,1.61 -0.78,0.71 -1.41,1.56 -1.85,2.52 -0.45,0.95 -0.7,1.98 -0.75,3.03l0 81.68c0.06,2.2 0.96,4.29 2.52,5.85 1.56,1.56 3.65,2.46 5.85,2.52l81.5 0c2.14,-0.09 4.15,-1.02 5.61,-2.59 1.46,-1.56 2.25,-3.64 2.2,-5.78l0 -81.68c0.02,-1.02 -0.17,-2.04 -0.56,-2.98 -0.39,-0.95 -0.97,-1.8 -1.7,-2.52 -0.73,-0.71 -1.6,-1.27 -2.56,-1.64 -0.96,-0.37 -1.97,-0.53 -3,-0.49zm-59.34 81.44l-14.22 0 0 -43.53 14.22 0 0 43.53zm-6.78 -50.12c-0.99,0.03 -1.98,-0.14 -2.9,-0.5 -0.92,-0.37 -1.76,-0.92 -2.46,-1.62 -0.7,-0.71 -1.25,-1.55 -1.6,-2.47 -0.36,-0.93 -0.52,-1.92 -0.48,-2.91 -0.04,-1 0.12,-2 0.49,-2.94 0.37,-0.94 0.92,-1.78 1.64,-2.49 0.71,-0.71 1.57,-1.26 2.5,-1.62 0.94,-0.36 1.94,-0.52 2.94,-0.46 0.99,-0.03 1.98,0.14 2.9,0.5 0.92,0.37 1.76,0.92 2.46,1.62 0.7,0.71 1.25,1.55 1.6,2.47 0.36,0.93 0.52,1.92 0.48,2.91 0.04,1 -0.12,2 -0.49,2.94 -0.37,0.94 -0.92,1.78 -1.64,2.49 -0.71,0.71 -1.57,1.26 -2.5,1.62 -0.94,0.36 -1.94,0.52 -2.94,0.46zm57.69 50.12l-14.28 0 0 -23.81c0,-5.68 -2.01,-9.58 -7.08,-9.58 -1.57,0.01 -3.11,0.51 -4.38,1.43 -1.28,0.92 -2.24,2.21 -2.76,3.7 -0.4,1.11 -0.56,2.3 -0.49,3.48l0 24.79 -14.04 0 0 -43.53 14.04 0 0 6.1c1.25,-2.29 3.11,-4.2 5.37,-5.5 2.26,-1.3 4.84,-1.96 7.45,-1.89 9.22,0 16.18,6.1 16.18,19.11l0 25.7z"/>
 </g>
</svg>
