<?xml version="1.0" encoding="UTF-8"?>
<!DOCTYPE svg PUBLIC "-//W3C//DTD SVG 1.1//EN" "http://www.w3.org/Graphics/SVG/1.1/DTD/svg11.dtd">
<!-- Creator: CorelDRAW 2023 (Not for commercial use) -->
<svg xmlns="http://www.w3.org/2000/svg" xml:space="preserve" width="0.620012in" height="0.620016in" version="1.1" style="shape-rendering:geometricPrecision; text-rendering:geometricPrecision; image-rendering:optimizeQuality; fill-rule:evenodd; clip-rule:evenodd"
viewBox="0 0 83.54 83.54"
 xmlns:xlink="http://www.w3.org/1999/xlink"
 xmlns:xodm="http://www.corel.com/coreldraw/odm/2003">
 <defs>
  <style type="text/css">
   <![CDATA[
    .fil0 {fill:#33302B}
   ]]>
  </style>
 </defs>
 <g id="Layer_x0020_1">
  <metadata id="CorelCorpID_0Corel-Layer"/>
  <g id="icono_github.svg">
   <g id="Page-1">
    <g id="Dribbble-Light-Preview">
     <g id="icons">
      <path id="github-_x005b__x0023_142_x005d_" class="fil0" d="M41.77 0c23.07,0 41.77,19.17 41.77,42.83 0,18.92 -11.96,34.97 -28.54,40.63 -2.12,0.42 -2.87,-0.91 -2.87,-2.06 0,-1.41 0.05,-6.02 0.05,-11.75 0,-3.99 -1.34,-6.6 -2.84,-7.93 9.3,-1.06 19.08,-4.68 19.08,-21.13 0,-4.68 -1.62,-8.5 -4.3,-11.5 0.43,-1.08 1.87,-5.44 -0.41,-11.34 0,0 -3.5,-1.15 -11.47,4.39 -3.34,-0.95 -6.91,-1.42 -10.46,-1.44 -3.55,0.02 -7.12,0.49 -10.46,1.44 -7.98,-5.54 -11.49,-4.39 -11.49,-4.39 -2.27,5.9 -0.84,10.25 -0.41,11.34 -2.67,3 -4.3,6.82 -4.3,11.5 0,16.41 9.75,20.08 19.03,21.17 -1.19,1.07 -2.28,2.96 -2.65,5.73 -2.38,1.09 -8.43,2.99 -12.16,-3.56 0,0 -2.21,-4.11 -6.4,-4.42 0,0 -4.07,-0.05 -0.28,2.6 0,0 2.74,1.32 4.64,6.27 0,0 2.45,7.64 14.07,5.05 0.02,3.58 0.06,6.95 0.06,7.97 0,1.13 -0.77,2.46 -2.85,2.06 -16.6,-5.66 -28.57,-21.72 -28.57,-40.64 0,-23.65 18.71,-42.83 41.77,-42.83z"/>
     </g>
    </g>
   </g>
  </g>
 </g>
</svg>
