<svg xmlns="http://www.w3.org/2000/svg" width="75.724" height="67.211" viewBox="0 0 556.57 493.99" shape-rendering="geometricPrecision" text-rendering="geometricPrecision" image-rendering="optimizeQuality" fill-rule="evenodd" clip-rule="evenodd"><path d="M253.37 15.2c-12.73 8.46-74.97 49.76-138.28 91.79C51.77 149.01 0 183.77 0 184.22c0 .46 3.18 2.55 7.09 4.65C11 191.14 73.41 225.71 146 265.92l131.73 73.23 3.37-1.73c1.91-.91 50.5-28.66 108.08-61.5l104.62-59.86.63 185.13h62.13v-216.6l-80.61-54.04C367.33 57.77 280.53.46 278.46 0c-1.1-.18-12.28 6.64-25.12 15.2h.02zM123.56 354.89l.28 46.67 154.19 92.43 155.29-93.25v-46.13c0-25.47-.28-46.22-.54-46.22-.37 0-30.74 18.2-67.6 40.57l-76.96 46.48-10.1 5.92-30.65-18.38c-25.57-15.28-51.12-30.65-76.59-46.13l-46.67-28.21c-.54-.18-.73 20.56-.63 46.22l-.04.02z" fill="#d2d5d4" fill-rule="nonzero"/></svg>