<svg xmlns="http://www.w3.org/2000/svg" width="52.147" height="52.151" viewBox="0 0 97.68 97.68" shape-rendering="geometricPrecision" text-rendering="geometricPrecision" image-rendering="optimizeQuality" fill-rule="evenodd" clip-rule="evenodd"><path d="M89.86.01H8.36c-1.05-.05-2.1.11-3.09.47-.99.36-1.9.91-2.67 1.61-.78.71-1.41 1.56-1.85 2.52C.3 5.56.05 6.59 0 7.64v81.68c.06 2.2.96 4.29 2.52 5.85a8.599 8.599 0 005.85 2.52h81.5a8.12 8.12 0 005.61-2.59 8.185 8.185 0 002.2-5.78V7.64c.02-1.02-.17-2.04-.56-2.98a7.58 7.58 0 00-1.7-2.52c-.73-.71-1.6-1.27-2.56-1.64-.96-.37-1.97-.53-3-.49zM30.52 81.45H16.3V37.92h14.22v43.53zm-6.78-50.12a7.36 7.36 0 01-2.9-.5c-.92-.37-1.76-.92-2.46-1.62-.7-.71-1.25-1.55-1.6-2.47-.36-.93-.52-1.92-.48-2.91-.04-1 .12-2 .49-2.94s.92-1.78 1.64-2.49c.71-.71 1.57-1.26 2.5-1.62.94-.36 1.94-.52 2.94-.46.99-.03 1.98.14 2.9.5.92.37 1.76.92 2.46 1.62.7.71 1.25 1.55 1.6 2.47.36.93.52 1.92.48 2.91.04 1-.12 2-.49 2.94s-.92 1.78-1.64 2.49c-.71.71-1.57 1.26-2.5 1.62-.94.36-1.94.52-2.94.46zm57.69 50.12H67.15V57.64c0-5.68-2.01-9.58-7.08-9.58-1.57.01-3.11.51-4.38 1.43a7.654 7.654 0 00-2.76 3.7c-.4 1.11-.56 2.3-.49 3.48v24.79H38.4V37.93h14.04v6.1c1.25-2.29 3.11-4.2 5.37-5.5 2.26-1.3 4.84-1.96 7.45-1.89 9.22 0 16.18 6.1 16.18 19.11v25.7z" fill="#33302b" fill-rule="nonzero"/></svg>