<svg xmlns="http://www.w3.org/2000/svg" width="59.521" height="59.522" viewBox="0 0 83.63 83.63" shape-rendering="geometricPrecision" text-rendering="geometricPrecision" image-rendering="optimizeQuality" fill-rule="evenodd" clip-rule="evenodd"><path d="M41.82 0c23.09 0 41.82 19.19 41.82 42.87 0 18.94-11.97 35-28.57 40.68-2.12.42-2.87-.92-2.87-2.06 0-1.41.05-6.03.05-11.77 0-4-1.34-6.61-2.84-7.94 9.31-1.06 19.1-4.69 19.1-21.15 0-4.68-1.62-8.51-4.31-11.51.43-1.08 1.87-5.44-.41-11.35 0 0-3.5-1.15-11.49 4.39-3.34-.95-6.92-1.43-10.47-1.44-3.55.02-7.13.49-10.47 1.44-7.99-5.54-11.5-4.39-11.5-4.39-2.27 5.9-.84 10.27-.41 11.35-2.67 3-4.31 6.82-4.31 11.51 0 16.43 9.76 20.1 19.05 21.19-1.2 1.07-2.28 2.96-2.66 5.73-2.38 1.1-8.44 2.99-12.17-3.56 0 0-2.21-4.12-6.41-4.42 0 0-4.08-.05-.28 2.61 0 0 2.74 1.32 4.64 6.27 0 0 2.46 7.65 14.09 5.06.02 3.58.06 6.96.06 7.98 0 1.13-.77 2.46-2.86 2.06C11.98 77.88 0 61.81 0 42.87 0 19.19 18.73 0 41.82 0z" fill="#d2d5d4"/></svg>