<svg xmlns="http://www.w3.org/2000/svg" width="59.521" height="59.522" viewBox="0 0 83.54 83.54" shape-rendering="geometricPrecision" text-rendering="geometricPrecision" image-rendering="optimizeQuality" fill-rule="evenodd" clip-rule="evenodd"><path d="M41.77 0c23.07 0 41.77 19.17 41.77 42.83 0 18.92-11.96 34.97-28.54 40.63-2.12.42-2.87-.91-2.87-2.06 0-1.41.05-6.02.05-11.75 0-3.99-1.34-6.6-2.84-7.93 9.3-1.06 19.08-4.68 19.08-21.13 0-4.68-1.62-8.5-4.3-11.5.43-1.08 1.87-5.44-.41-11.34 0 0-3.5-1.15-11.47 4.39-3.34-.95-6.91-1.42-10.46-1.44-3.55.02-7.12.49-10.46 1.44-7.98-5.54-11.49-4.39-11.49-4.39-2.27 5.9-.84 10.25-.41 11.34-2.67 3-4.3 6.82-4.3 11.5 0 16.41 9.75 20.08 19.03 21.17-1.19 1.07-2.28 2.96-2.65 5.73-2.38 1.09-8.43 2.99-12.16-3.56 0 0-2.21-4.11-6.4-4.42 0 0-4.07-.05-.28 2.6 0 0 2.74 1.32 4.64 6.27 0 0 2.45 7.64 14.07 5.05.02 3.58.06 6.95.06 7.97 0 1.13-.77 2.46-2.85 2.06C11.98 77.8.01 61.74.01 42.82.01 19.17 18.72-.01 41.78-.01z" fill="#33302b"/></svg>