<?xml version="1.0" encoding="UTF-8"?>
<!DOCTYPE svg PUBLIC "-//W3C//DTD SVG 1.1//EN" "http://www.w3.org/Graphics/SVG/1.1/DTD/svg11.dtd">
<!-- Creator: CorelDRAW 2023 (Not for commercial use) -->
<svg xmlns="http://www.w3.org/2000/svg" xml:space="preserve" width="0.620012in" height="0.620016in" version="1.1" style="shape-rendering:geometricPrecision; text-rendering:geometricPrecision; image-rendering:optimizeQuality; fill-rule:evenodd; clip-rule:evenodd"
viewBox="0 0 83.63 83.63"
 xmlns:xlink="http://www.w3.org/1999/xlink"
 xmlns:xodm="http://www.corel.com/coreldraw/odm/2003">
 <defs>
  <style type="text/css">
   <![CDATA[
    .fil0 {fill:#D2D5D4}
   ]]>
  </style>
 </defs>
 <g id="Layer_x0020_1">
  <metadata id="CorelCorpID_0Corel-Layer"/>
  <g id="icono_github.svg">
   <g id="Page-1">
    <g id="Dribbble-Light-Preview">
     <g id="icons">
      <path id="github-_x005b__x0023_142_x005d_" class="fil0" d="M41.82 0c23.09,0 41.82,19.19 41.82,42.87 0,18.94 -11.97,35 -28.57,40.68 -2.12,0.42 -2.87,-0.92 -2.87,-2.06 0,-1.41 0.05,-6.03 0.05,-11.77 0,-4 -1.34,-6.61 -2.84,-7.94 9.31,-1.06 19.1,-4.69 19.1,-21.15 0,-4.68 -1.62,-8.51 -4.31,-11.51 0.43,-1.08 1.87,-5.44 -0.41,-11.35 0,0 -3.5,-1.15 -11.49,4.39 -3.34,-0.95 -6.92,-1.43 -10.47,-1.44 -3.55,0.02 -7.13,0.49 -10.47,1.44 -7.99,-5.54 -11.5,-4.39 -11.5,-4.39 -2.27,5.9 -0.84,10.27 -0.41,11.35 -2.67,3 -4.31,6.82 -4.31,11.51 0,16.43 9.76,20.1 19.05,21.19 -1.2,1.07 -2.28,2.96 -2.66,5.73 -2.38,1.1 -8.44,2.99 -12.17,-3.56 0,0 -2.21,-4.12 -6.41,-4.42 0,0 -4.08,-0.05 -0.28,2.61 0,0 2.74,1.32 4.64,6.27 0,0 2.46,7.65 14.09,5.06 0.02,3.58 0.06,6.96 0.06,7.98 0,1.13 -0.77,2.46 -2.86,2.06 -16.62,-5.67 -28.6,-21.74 -28.6,-40.68 0,-23.68 18.73,-42.87 41.82,-42.87z"/>
     </g>
    </g>
   </g>
  </g>
 </g>
</svg>
