<?xml version="1.0" encoding="UTF-8"?>
<!DOCTYPE svg PUBLIC "-//W3C//DTD SVG 1.1//EN" "http://www.w3.org/Graphics/SVG/1.1/DTD/svg11.dtd">
<!-- Creator: CorelDRAW 2023 (Not for commercial use) -->
<svg xmlns="http://www.w3.org/2000/svg" xml:space="preserve" width="1.07319in" height="0.680587in" version="1.1" style="shape-rendering:geometricPrecision; text-rendering:geometricPrecision; image-rendering:optimizeQuality; fill-rule:evenodd; clip-rule:evenodd"
viewBox="0 0 1037.22 657.78"
 xmlns:xlink="http://www.w3.org/1999/xlink"
 xmlns:xodm="http://www.corel.com/coreldraw/odm/2003">
 <defs>
  <style type="text/css">
   <![CDATA[
    .fil0 {fill:#33302B}
   ]]>
  </style>
 </defs>
 <g id="Layer_x0020_1">
  <metadata id="CorelCorpID_0Corel-Layer"/>
  <g id="_1693369465728">
   <path class="fil0" d="M582.05 218.1c51.04,7.03 131.23,-7.9 176.3,-20.99 23.85,-6.93 50.58,-17.74 70.54,-29.27 30,-17.34 33.39,-22.1 51.48,-51.67 72.92,-4.01 120,93.6 -100.96,130.39 -111.34,18.53 -222.61,16.26 -337.17,16.26 -8.8,4.19 -4.27,-0.97 -11.21,9.84 -19.83,30.9 -95.31,179.7 -98.89,194.76l97.5 2.91 77.2 -73.64c57.95,-53.29 42.19,-52.62 99.69,-53.04 99.48,-0.73 176.62,-6.3 262.78,-38.68 221.94,-83.39 192.36,-277.67 -37.21,-268.82 -8.87,59.37 -58.06,92.41 -96.91,118.53 -49.68,33.4 -91.98,43.35 -153.15,63.41z"/>
   <path class="fil0" d="M465.39 37.87c46.82,-6.58 126.83,-6.19 169.12,8.66 69.3,24.34 21.31,69.97 -16.04,91.33 -77.19,44.13 -177.85,71.78 -279.43,81.94 -53.11,5.31 -121.83,8.54 -170.12,-7.4 -75.77,-25.01 -19.51,-71.95 15.76,-92.78 78.97,-46.63 177.55,-67.26 280.72,-81.76zm67.63 -35.52c-79.01,8.85 -138.69,14.99 -212.86,33.63 -82.37,20.71 -195.58,58.84 -258.53,112.06 -18.36,15.52 -40.63,56.7 -7.24,78.91 47.96,31.9 147.45,33.72 214.45,28.28 141.69,-11.5 283.66,-41.77 395.55,-97.19 28.7,-14.22 54.37,-29.01 74.42,-47.98 20.58,-19.47 46.3,-53.18 8.09,-79.49 -40.78,-28.09 -154.73,-34.83 -213.88,-28.21z"/>
   <path class="fil0" d="M142.31 560.8c-7.76,29.58 -26.73,61.01 -62.97,53.89 -34.61,-6.8 -38.44,-52.38 -29.1,-85.1 24.53,-85.91 118.26,-68.65 92.07,31.2zm100.34 -57.02l-37.54 0.62 -13.86 53.27c0.27,-35.34 0.47,-61.16 -16.12,-87.36 -39.59,-62.53 -157.81,-44.22 -173.32,65.07 -9.44,66.5 18.32,122.21 82.81,122.39 64.13,0.18 89.96,-45.53 106.71,-96.85l-18.49 91.08c47.67,0 38.01,8.45 51.25,-54.7 4.01,-19.1 7.95,-37.23 12.21,-55.83 68.7,-29.7 25.4,52.91 19.03,110.48l39.21 -0.32c4.68,-29.92 24.94,-93.86 23.26,-120 -1.47,-23 -15.87,-33.66 -39.72,-31.48 -18.72,1.71 -27.41,18.64 -37.56,27.39l2.13 -23.77z"/>
   <path class="fil0" d="M971.59 621.55c-53.03,4.57 -22.73,-83.02 0.35,-88.45 32.23,-7.59 32.97,58.23 -0.35,88.45zm-174.78 18.84l5.74 -8.3c0.13,12.64 -1.18,7.13 -3.33,10.03l0.21 9.97 39.06 -1.38c5.51,-12.32 10.88,-41.46 14.17,-56.39l8.93 -42.37c7.59,-25.82 36.54,-13.49 47.51,-4.05 -2.38,22.09 -10.07,36.19 -3.99,62.38 14.28,61.46 90.77,58.84 117.8,9.31 48.6,-89.03 -37.07,-164 -100.41,-92.09l-6.7 8.14c0.77,-11.72 -0.73,-5.14 4.03,-10.21l1.77 -21.83c-32.12,-11.2 -38.23,13.01 -54.16,24.49l3.58 -24.66 -39.04 0c-8.27,27.27 -15.36,87.36 -24.93,109.42 -5.17,11.92 -36.3,18.64 -29.07,-18.97 3.49,-18.12 8.21,-37.82 12.97,-55.09l25.85 -0.25 5.76 -35.03 -23.96 0.11 7.02 -39.11c-58.38,26.92 -36.48,13.6 -46.95,35.67l-22.63 34.82c4.18,3.52 2.48,3.73 12.8,3.89 -0.66,33.32 -40.31,112.2 16.13,117.11 19.72,1.72 22.51,-5.91 31.86,-15.64z"/>
   <path class="fil0" d="M515.99 553.5l-6.76 4.26 4.5 -6.62 15.2 -70.87c8.02,-0.32 14.6,-0.82 22.65,0.53 29.42,4.94 22.7,41.2 -3.45,47.4 -18.91,4.48 -23.77,12.88 -32.14,25.3zm-6.64 13.6c28.58,2.24 53.67,5.18 76.51,-10.87 14.95,-10.5 30.94,-30.18 30.9,-59.87 -0.09,-65.44 -67.45,-56.38 -125.84,-56.44l-46.87 212.2 46.24 -0.89 19.06 -84.14z"/>
   <path class="fil0" d="M643.9 558.36c9.98,-33.25 44.64,-42.42 47.75,-0l-47.75 0zm74.48 57.32c-2.34,0.38 -85.26,28.43 -78.56,-30.93l85.91 -1.52c31.97,-87.81 -94.42,-119.89 -123.17,-29.62 -12.86,40.36 -1.58,80.87 28.28,95.69 39.06,19.39 69.58,4.2 87.55,-33.62z"/>
   <path class="fil0" d="M406.85 532.42c7.85,8.35 8.95,9.66 9.63,25.37l-47.96 0.64c5.35,-19.58 14.44,-29.83 38.32,-26.01zm35.31 83.33c-16.35,3.9 -79.64,24.92 -78.83,-31.96l87.84 -0.85c17.39,-109.18 -98.54,-105.69 -124.31,-27.95 -28.12,84.81 51.94,114.99 87.29,96.98 5.61,-2.85 23.55,-28.1 28.02,-36.21z"/>
   <path class="fil0" d="M922.5 527.52l-2.67 -2.07c-4.75,5.07 -3.25,-1.51 -4.03,10.21l6.7 -8.14z"/>
   <path class="fil0" d="M796.81 640.39l2.41 1.73c2.15,-2.9 3.46,2.61 3.33,-10.03l-5.74 8.3z"/>
   <polygon class="fil0" points="515.99,553.5 513.74,551.15 509.24,557.76 "/>
  </g>
 </g>
</svg>
