<svg xmlns="http://www.w3.org/2000/svg" width="52.147" height="52.151" viewBox="0 0 97.83 97.84" shape-rendering="geometricPrecision" text-rendering="geometricPrecision" image-rendering="optimizeQuality" fill-rule="evenodd" clip-rule="evenodd"><path d="M90.01.01H8.38c-1.05-.05-2.1.11-3.09.47-.99.36-1.9.91-2.68 1.62A8.003 8.003 0 000 7.66v81.81c.06 2.2.96 4.3 2.52 5.85a8.599 8.599 0 005.85 2.52H90c2.14-.1 4.16-1.03 5.62-2.59a8.21 8.21 0 002.2-5.79V7.65a7.495 7.495 0 00-2.26-5.51A7.512 7.512 0 0090 .01zM30.58 81.58H16.33v-43.6h14.25v43.6zm-6.79-50.2a7.44 7.44 0 01-2.91-.5 7.244 7.244 0 01-4.55-7.02c-.04-1 .12-2.01.49-2.94.37-.94.92-1.79 1.64-2.49.71-.71 1.57-1.26 2.51-1.62a7.23 7.23 0 012.95-.47c.99-.03 1.98.14 2.91.5a7.244 7.244 0 014.55 7.02c.04 1-.12 2.01-.49 2.94-.37.94-.92 1.79-1.64 2.49-.71.71-1.57 1.26-2.51 1.62-.94.36-1.94.52-2.95.47zm57.78 50.2H67.26V57.73c0-5.69-2.02-9.6-7.09-9.6-1.58.01-3.11.51-4.39 1.43a7.593 7.593 0 00-2.76 3.7c-.4 1.12-.56 2.3-.49 3.49v24.83H38.47v-43.6h14.06v6.11c1.25-2.3 3.11-4.2 5.38-5.51 2.27-1.31 4.85-1.96 7.46-1.89 9.23 0 16.2 6.11 16.2 19.14v25.74z" fill="#d2d5d4" fill-rule="nonzero"/></svg>