<svg xmlns="http://www.w3.org/2000/svg" viewBox="0 0 538.04 538.04" shape-rendering="geometricPrecision" text-rendering="geometricPrecision" image-rendering="optimizeQuality" fill-rule="evenodd" clip-rule="evenodd"><path d="M0 0v538.04h538.04V0H0zm48.91 48.91h440.21v440.21H48.91V48.91zm297.49 73.42c-31.38 0-42.13 22.43-42.13 37.5v39.98c0 20.3 11.06 39.69 39.65 39.69 47.98-.05 42.18-36.35 42.18-61.57h-37.5v13.23h22.11c0 19.69-9.21 32.91-26.75 32.91-13.84 0-21.83-12-21.83-28.61v-33.2c0-15.39 14.44-24.27 24.27-24.27 17.54 0 24.26 15.38 24.26 15.38l13.23-8.93s-6.44-22.11-37.5-22.11zm-136.47 75.56c-22.13 0-55.93 2.13-87.6.91v9.84c19.07 3.69 27.04 1.83 27.04 29.52v135.28c0 27.98-7.98 25.83-27.04 29.52v10.17c9.22-.32 25.17-1.24 41.46-1.24 15.38 0 35.38.63 43.99 1.24v-10.17c-24.6-3.37-32-.61-32-29.52v-57.18c8.31.61 15.41.57 26.46.57 20.91 37.52 40.88 65.54 52.26 78.76 20.59 24.9 53.52 21.22 61.52 17.53v-9.22c-12.3-.03-24.63-8.32-33.54-18.15-15.06-16.29-35.36-42.74-51.97-72.56 27.69-6.78 48.29-32.9 48.29-58.75 0-38.74-29.85-56.56-68.88-56.56zm-6.45 15.62c28.91 0 46.09 15.07 46.09 42.75-.02 27.09-18.46 45.19-49.2 45.19-11.37 0-16.6-.3-24.6-.91v-86.13c8-.93 18.46-.91 27.7-.91z" fill="#d2d5d4" fill-rule="nonzero"/></svg>