<?xml version="1.0" encoding="UTF-8"?>
<!DOCTYPE svg PUBLIC "-//W3C//DTD SVG 1.1//EN" "http://www.w3.org/Graphics/SVG/1.1/DTD/svg11.dtd">
<!-- Creator: CorelDRAW 2023 (Not for commercial use) -->
<svg xmlns="http://www.w3.org/2000/svg" xml:space="preserve" width="0.788795in" height="0.70011in" version="1.1" style="shape-rendering:geometricPrecision; text-rendering:geometricPrecision; image-rendering:optimizeQuality; fill-rule:evenodd; clip-rule:evenodd"
viewBox="0 0 554.15 491.85"
 xmlns:xlink="http://www.w3.org/1999/xlink"
 xmlns:xodm="http://www.corel.com/coreldraw/odm/2003">
 <defs>
  <style type="text/css">
   <![CDATA[
    .fil0 {fill:#33302B;fill-rule:nonzero}
   ]]>
  </style>
 </defs>
 <g id="Layer_x0020_1">
  <metadata id="CorelCorpID_0Corel-Layer"/>
  <path id="icono_scholar.svg" class="fil0" d="M252.27 15.13c-12.68,8.42 -74.64,49.55 -137.68,91.39 -63.04,41.84 -114.59,76.45 -114.59,76.9 0,0.45 3.16,2.54 7.06,4.63 3.89,2.26 66.03,36.68 138.31,76.71l131.16 72.92 3.36 -1.72c1.9,-0.9 50.28,-28.54 107.61,-61.23l104.17 -59.6 0.63 184.32 61.86 0 0 -215.66 -80.26 -53.8c-108.15,-72.47 -194.57,-129.53 -196.64,-129.98 -1.1,-0.17 -12.23,6.61 -25.01,15.13l0.02 0zm-129.25 338.22l0.28 46.47 153.53 92.03 154.62 -92.85 0 -45.93c0,-25.35 -0.28,-46.02 -0.54,-46.02 -0.37,0 -30.61,18.12 -67.3,40.4l-76.62 46.28 -10.05 5.9 -30.52 -18.3c-25.46,-15.22 -50.9,-30.52 -76.26,-45.93l-46.47 -28.09c-0.54,-0.17 -0.73,20.47 -0.63,46.02l-0.04 0.02z"/>
 </g>
</svg>
