<?xml version="1.0" encoding="UTF-8"?>
<!DOCTYPE svg PUBLIC "-//W3C//DTD SVG 1.1//EN" "http://www.w3.org/Graphics/SVG/1.1/DTD/svg11.dtd">
<!-- Creator: CorelDRAW 2023 (Not for commercial use) -->
<svg xmlns="http://www.w3.org/2000/svg" xml:space="preserve" width="0.442528in" height="0.27261in" version="1.1" style="shape-rendering:geometricPrecision; text-rendering:geometricPrecision; image-rendering:optimizeQuality; fill-rule:evenodd; clip-rule:evenodd"
viewBox="0 0 48.59 29.94"
 xmlns:xlink="http://www.w3.org/1999/xlink"
 xmlns:xodm="http://www.corel.com/coreldraw/odm/2003">
 <defs>
  <style type="text/css">
   <![CDATA[
    .fil0 {fill:#010002;fill-rule:nonzero}
   ]]>
  </style>
 </defs>
 <g id="Layer_x0020_1">
  <metadata id="CorelCorpID_0Corel-Layer"/>
  <g id="gradcap.svg">
   <g>
    <g>
     <g>
      <path class="fil0" d="M44.15 20l-0.03 -4.65 4.47 -2.5 -24.36 -12.85 -24.23 13.11 9.71 5.58 0.02 3.31 0 0.26 0.09 -0.04c-0.1,0.14 -0.17,0.28 -0.17,0.42 0.01,1.63 6.59,2.92 14.71,2.88 8.12,-0.04 14.69,-1.41 14.68,-3.03 0,-0.14 -0.08,-0.28 -0.18,-0.42l0.09 0.04 0 -0.27 -0.02 -3.33 4.21 -2.62 0.02 4.12c-0.46,0.2 -0.79,0.65 -0.78,1.19 0,0.7 0.57,1.26 1.28,1.26 0.71,-0 1.27,-0.58 1.27,-1.27 -0,-0.53 -0.33,-0.98 -0.79,-1.18zm-19.79 4.4c-7.21,0.04 -13.05,-0.75 -13.06,-1.76 -0.01,-1.01 5.83,-1.86 13.04,-1.89 7.21,-0.04 13.05,0.75 13.05,1.76 0.01,1.01 -5.83,1.86 -13.03,1.9zm14.25 -8.59c-0.98,-1.03 -4.47,-3.73 -14.32,-3.68 -9.86,0.05 -13.31,2.79 -14.27,3.83l-0.01 -0.98c0,0 2.8,-4.25 14.27,-4.32 11.47,-0.06 14.32,4.16 14.32,4.16l0.01 0.98zm4.04 6.92l-0.5 7.2c1.54,-2.41 2.82,-1.51 2.82,-1.51l-0.03 -5.7c-1.65,0.65 -2.29,0.01 -2.29,0.01z"/>
     </g>
    </g>
   </g>
  </g>
 </g>
</svg>
