<?xml version="1.0" encoding="UTF-8"?>
<!DOCTYPE svg PUBLIC "-//W3C//DTD SVG 1.1//EN" "http://www.w3.org/Graphics/SVG/1.1/DTD/svg11.dtd">
<!-- Creator: CorelDRAW 2023 (Not for commercial use) -->
<svg xmlns="http://www.w3.org/2000/svg" xml:space="preserve" width="0.788795in" height="0.70011in" version="1.1" style="shape-rendering:geometricPrecision; text-rendering:geometricPrecision; image-rendering:optimizeQuality; fill-rule:evenodd; clip-rule:evenodd"
viewBox="0 0 556.57 493.99"
 xmlns:xlink="http://www.w3.org/1999/xlink"
 xmlns:xodm="http://www.corel.com/coreldraw/odm/2003">
 <defs>
  <style type="text/css">
   <![CDATA[
    .fil0 {fill:#D2D5D4;fill-rule:nonzero}
   ]]>
  </style>
 </defs>
 <g id="Layer_x0020_1">
  <metadata id="CorelCorpID_0Corel-Layer"/>
  <path id="icono_scholar.svg" class="fil0" d="M253.37 15.2c-12.73,8.46 -74.97,49.76 -138.28,91.79 -63.32,42.02 -115.09,76.78 -115.09,77.23 0,0.46 3.18,2.55 7.09,4.65 3.91,2.27 66.32,36.84 138.91,77.05l131.73 73.23 3.37 -1.73c1.91,-0.91 50.5,-28.66 108.08,-61.5l104.62 -59.86 0.63 185.13 62.13 0 0 -216.6 -80.61 -54.04c-108.62,-72.78 -195.42,-130.09 -197.49,-130.55 -1.1,-0.18 -12.28,6.64 -25.12,15.2l0.02 0zm-129.81 339.69l0.28 46.67 154.19 92.43 155.29 -93.25 0 -46.13c0,-25.47 -0.28,-46.22 -0.54,-46.22 -0.37,0 -30.74,18.2 -67.6,40.57l-76.96 46.48 -10.1 5.92 -30.65 -18.38c-25.57,-15.28 -51.12,-30.65 -76.59,-46.13l-46.67 -28.21c-0.54,-0.18 -0.73,20.56 -0.63,46.22l-0.04 0.02z"/>
 </g>
</svg>
