<?xml version="1.0" encoding="UTF-8"?>
<!DOCTYPE svg PUBLIC "-//W3C//DTD SVG 1.1//EN" "http://www.w3.org/Graphics/SVG/1.1/DTD/svg11.dtd">
<!-- Creator: CorelDRAW 2023 (Not for commercial use) -->
<svg xmlns="http://www.w3.org/2000/svg" xml:space="preserve" width="0.543201in" height="0.54324in" version="1.1" style="shape-rendering:geometricPrecision; text-rendering:geometricPrecision; image-rendering:optimizeQuality; fill-rule:evenodd; clip-rule:evenodd"
viewBox="0 0 97.83 97.84"
 xmlns:xlink="http://www.w3.org/1999/xlink"
 xmlns:xodm="http://www.corel.com/coreldraw/odm/2003">
 <defs>
  <style type="text/css">
   <![CDATA[
    .fil0 {fill:#D2D5D4;fill-rule:nonzero}
   ]]>
  </style>
 </defs>
 <g id="Layer_x0020_1">
  <metadata id="CorelCorpID_0Corel-Layer"/>
  <path id="icono_linkedin.svg" class="fil0" d="M90.01 0.01l-81.63 0c-1.05,-0.05 -2.1,0.11 -3.09,0.47 -0.99,0.36 -1.9,0.91 -2.68,1.62 -0.78,0.71 -1.41,1.57 -1.86,2.52 -0.45,0.95 -0.7,1.99 -0.75,3.04l0 81.81c0.06,2.2 0.96,4.3 2.52,5.85 1.56,1.56 3.65,2.46 5.85,2.52l81.63 0c2.14,-0.1 4.16,-1.03 5.62,-2.59 1.46,-1.57 2.25,-3.64 2.2,-5.79l0 -81.81c0.02,-1.02 -0.17,-2.04 -0.56,-2.99 -0.39,-0.95 -0.97,-1.81 -1.7,-2.52 -0.73,-0.72 -1.6,-1.27 -2.56,-1.64 -0.96,-0.37 -1.98,-0.53 -3,-0.49zm-59.43 81.57l-14.25 0 0 -43.6 14.25 0 0 43.6zm-6.79 -50.2c-0.99,0.03 -1.98,-0.14 -2.91,-0.5 -0.92,-0.37 -1.76,-0.92 -2.46,-1.63 -0.7,-0.71 -1.25,-1.55 -1.61,-2.48 -0.36,-0.93 -0.52,-1.92 -0.48,-2.91 -0.04,-1 0.12,-2.01 0.49,-2.94 0.37,-0.94 0.92,-1.79 1.64,-2.49 0.71,-0.71 1.57,-1.26 2.51,-1.62 0.94,-0.36 1.94,-0.52 2.95,-0.47 0.99,-0.03 1.98,0.14 2.91,0.5 0.92,0.37 1.76,0.92 2.46,1.63 0.7,0.71 1.25,1.55 1.61,2.48 0.36,0.93 0.52,1.92 0.48,2.91 0.04,1 -0.12,2.01 -0.49,2.94 -0.37,0.94 -0.92,1.79 -1.64,2.49 -0.71,0.71 -1.57,1.26 -2.51,1.62 -0.94,0.36 -1.94,0.52 -2.95,0.47zm57.78 50.2l-14.31 0 0 -23.85c0,-5.69 -2.02,-9.6 -7.09,-9.6 -1.58,0.01 -3.11,0.51 -4.39,1.43 -1.28,0.92 -2.25,2.21 -2.76,3.7 -0.4,1.12 -0.56,2.3 -0.49,3.49l0 24.83 -14.06 0 0 -43.6 14.06 0 0 6.11c1.25,-2.3 3.11,-4.2 5.38,-5.51 2.27,-1.31 4.85,-1.96 7.46,-1.89 9.23,0 16.2,6.11 16.2,19.14l0 25.74z"/>
 </g>
</svg>
